<svg width="360" height="360" viewBox="0 0 360 360" fill="none" xmlns="http://www.w3.org/2000/svg">
<path d="M183 333C265.843 333 333 265.843 333 183C333 100.157 265.843 33 183 33C100.157 33 33 100.157 33 183C33 265.843 100.157 333 183 333Z" fill="#039BE5"/>
<path d="M121.844 193.158L143.199 252.267C143.199 252.267 145.869 257.797 148.728 257.797C151.587 257.797 194.111 213.559 194.111 213.559L241.398 122.224L122.606 177.9L121.844 193.158Z" fill="#C8DAEA"/>
<path d="M150.159 208.317L146.059 251.886C146.059 251.886 144.343 265.236 157.69 251.886C171.037 238.536 183.813 228.242 183.813 228.242" fill="#A9C6D8"/>
<path d="M122.229 195.267L78.3 180.954C78.3 180.954 73.05 178.824 74.7405 173.994C75.0885 172.998 75.7905 172.15 77.8905 170.694C87.624 163.909 258.05 102.654 258.05 102.654C258.05 102.654 262.862 101.032 265.7 102.111C266.402 102.328 267.033 102.728 267.53 103.27C268.027 103.811 268.371 104.475 268.527 105.193C268.834 106.462 268.962 107.767 268.908 109.071C268.895 110.199 268.758 111.244 268.655 112.884C267.617 129.631 236.555 254.623 236.555 254.623C236.555 254.623 234.696 261.938 228.038 262.188C226.401 262.241 224.771 261.964 223.244 261.373C221.717 260.782 220.325 259.89 219.15 258.75C206.084 247.511 160.922 217.16 150.942 210.485C150.717 210.331 150.527 210.131 150.386 209.898C150.245 209.665 150.155 209.405 150.123 209.135C149.984 208.431 150.749 207.56 150.749 207.56C150.749 207.56 229.388 137.659 231.48 130.321C231.642 129.753 231.03 129.473 230.208 129.722C224.985 131.643 134.442 188.821 124.449 195.132C123.73 195.35 122.969 195.396 122.229 195.267Z" fill="white"/>
</svg>
